<svg id="e1xHXWFnT6L1" xmlns="http://www.w3.org/2000/svg" xmlns:xlink="http://www.w3.org/1999/xlink" viewBox="0 0 328.611 328.611" shape-rendering="geometricPrecision" text-rendering="geometricPrecision"><g><g><path d="M209.306,50.798c-2.452-3.337-7.147-4.055-10.485-1.602s-4.055,7.147-1.603,10.485c54.576,74.266,66.032,123.541,66.032,151.8c0,27.691-8.272,52.794-23.293,70.685-17.519,20.866-42.972,31.446-75.651,31.446-73.031,0-98.944-55.018-98.944-102.131c0-52.227,28.103-103.234,51.679-136.829c25.858-36.847,52.11-61.415,52.37-61.657c3.035-2.819,3.209-7.565.39-10.6-2.819-3.034-7.565-3.209-10.599-.39-1.11,1.031-27.497,25.698-54.254,63.765-24.901,35.428-54.586,89.465-54.586,145.71c0,31.062,9.673,59.599,27.236,80.353c20.361,24.061,50.345,36.779,86.708,36.779c36.794,0,66.926-12.726,87.139-36.801c17.286-20.588,26.806-49.117,26.806-80.33-.001-55.265-37.493-117.884-68.945-160.683Z" fill="#3e3e3e"/><path d="M198.43,148.146l-95.162,95.162c-2.929,2.929-2.929,7.678,0,10.606c1.465,1.464,3.385,2.197,5.304,2.197s3.839-.732,5.304-2.197l95.162-95.162c2.929-2.929,2.929-7.678,0-10.606-2.931-2.929-7.679-2.929-10.608,0Z" fill="#3e3e3e"/><path d="M191.965,207.899c-13.292,0-24.106,10.814-24.106,24.106s10.814,24.106,24.106,24.106s24.106-10.814,24.106-24.106-10.814-24.106-24.106-24.106Zm0,33.212c-5.021,0-9.106-4.085-9.106-9.106s4.085-9.106,9.106-9.106s9.106,4.085,9.106,9.106-4.085,9.106-9.106,9.106Z" fill="#3e3e3e"/><path d="M125.178,194.162c13.292,0,24.106-10.814,24.106-24.106s-10.814-24.106-24.106-24.106-24.106,10.814-24.106,24.106s10.814,24.106,24.106,24.106Zm0-33.213c5.021,0,9.106,4.085,9.106,9.106s-4.085,9.106-9.106,9.106-9.106-4.085-9.106-9.106s4.084-9.106,9.106-9.106Z" fill="#3e3e3e"/></g></g></svg>
