<svg id="eVgEd82NIKa1" xmlns="http://www.w3.org/2000/svg" xmlns:xlink="http://www.w3.org/1999/xlink" viewBox="0 0 32 32" shape-rendering="geometricPrecision" text-rendering="geometricPrecision"><path d="M24.5,30c-1.969112.11312-3.832839-.897115-4.812817-2.608793s-.907634-3.830361.186817-5.471207l3.616-5.3818c.226088-.33632.604751-.538038,1.01-.538038s.783912.201718,1.01.538038l3.55,5.2772c.587139.868739.913321,1.887398.94,2.9356-.074236,2.966076-2.533692,5.313291-5.5,5.249Zm0-11.38l-2.9356,4.3672c-.705297,1.025121-.754152,2.365638-.125346,3.43938s1.821826,1.68699,3.060946,1.57342c1.861887.064478,3.426002-1.387467,3.5-3.249-.023192-.670499-.242202-1.319534-.63-1.867L24.5,18.62Z" fill="#2e2e2e"/><path d="M11,16v-5h1c2.208111-.00248,3.99752-1.791889,4-4v-3h-3c-1.023909.001639-2.007755.398035-2.7468,1.1067C9.198385,3.191914,7.186101,2.001865,5,2h-3v3c.003637,3.312201,2.687799,5.996363,6,6h1v5h-7v2h14v-2h-5ZM13,6h1v1c-.001102,1.104113-.895887,1.998898-2,2h-1v-1c.001102-1.104113.895887-1.998898,2-2ZM8,9C5.791889,8.99752,4.00248,7.208111,4,5v-1h1c2.208111.00248,3.99752,1.791889,4,4v1h-1Z" fill="#2e2e2e"/><rect width="14" height="2" rx="0" ry="0" transform="translate(2 21)" fill="#2e2e2e"/><rect width="14" height="2" rx="0" ry="0" transform="translate(2 26)" fill="#2e2e2e"/><rect width="32" height="32" rx="0" ry="0" fill="none"/></svg>
