<svg id="eDUOPGCejAn1" xmlns="http://www.w3.org/2000/svg" xmlns:xlink="http://www.w3.org/1999/xlink" viewBox="0 0 1024 1024" shape-rendering="geometricPrecision" text-rendering="geometricPrecision"><path d="M224.192,557.12c-4.197649.108163-8.36226-.768597-12.16-2.56-3.928042-1.52302-7.516681-3.8067-10.56-6.72-6.058005-6.008531-9.465546-14.187599-9.465546-22.72s3.407541-16.711469,9.465546-22.72c3.043319-2.9133,6.631958-5.19698,10.56-6.72c7.727837-3.504879,16.592163-3.504879,24.32,0c3.84,1.6,7.424,3.904,10.56,6.72c6.058005,6.008531,9.465546,14.187599,9.465546,22.72s-3.407541,16.711469-9.465546,22.72c-3.117972,2.816698-6.68785,5.088439-10.56,6.72-3.79774,1.791403-7.962351,2.668163-12.16,2.56Zm32-128h-32c-17.673112,0-32-14.326888-32-32s14.326888-32,32-32h32c17.673112,0,32,14.326888,32,32s-14.326888,32-32,32Zm32-128h-64c-17.673112,0-32-14.326888-32-32s14.326888-32,32-32h64c17.673112,0,32,14.326888,32,32s-14.326888,32-32,32Zm-64,384c-4.181672-.05056-8.312886-.920289-12.16-2.56-3.928042-1.52302-7.516681-3.8067-10.56-6.72-12.421388-12.523664-12.366137-32.737201.123529-45.192774s32.703277-12.455573,45.192942,0s12.544917,32.66911.123529,45.192774c-3.117972,2.816698-6.68785,5.088439-10.56,6.72-3.847114,1.639711-7.978328,2.50944-12.16,2.56Zm32,128h-32c-17.673112,0-32-14.326888-32-32s14.326888-32,32-32h32c17.673112,0,32,14.326888,32,32s-14.326888,32-32,32Zm544-256h-6.4l-5.76-1.92c-2.039176-.700426-3.976153-1.668915-5.76-2.88l-4.8-3.84c-12.421388-12.523664-12.366137-32.737201.123529-45.192774s32.703277-12.455573,45.192942,0s12.544917,32.66911.123529,45.192774l-4.8,3.84c-1.783847,1.211085-3.720824,2.179574-5.76,2.88-1.909903.963598-3.963076,1.611969-6.08,1.92h-6.08Zm0-128h-32c-17.673112,0-32-14.326888-32-32s14.326888-32,32-32h32c17.673112,0,32,14.326888,32,32s-14.326888,32-32,32Zm0-128h-64c-17.673112,0-32-14.326888-32-32s14.326888-32,32-32h64c17.673112,0,32,14.326888,32,32s-14.326888,32-32,32Zm0,384c-8.472543-.117872-16.587719-3.432521-22.72-9.28-2.82659-3.11043-5.09946-6.682083-6.72-10.56-1.802879-3.793876-2.680223-7.961261-2.56-12.16c0-17.673112,14.326888-32,32-32s32,14.326888,32,32c-.05056,4.181672-.920289,8.312886-2.56,12.16-1.62054,3.877917-3.89341,7.44957-6.72,10.56-6.132281,5.847479-14.247457,9.162128-22.72,9.28Zm0,128h-32c-17.673112,0-32-14.326888-32-32s14.326888-32,32-32h32c17.673112,0,32,14.326888,32,32s-14.326888,32-32,32Zm-288-114.88c-17.673112,0-32-14.326888-32-32s14.326888-32,32-32s32-14.326888,32-32s14.326888-32,32-32s32,14.326888,32,32c0,53.019336-42.980664,96-96,96Zm-.64-390.72c32,40.96,74.56,94.08,109.12,138.56l2.24,3.2c75.2,96,55.04,198.08,4.48,250.56-29.851092,31.487092-71.33193,49.320596-114.72,49.320596s-84.868908-17.833504-114.72-49.320596c-72-74.88-49.6-179.84,4.8-250.88l23.68-32c28.16-36.8,58.88-77.44,85.12-110.4v.96Zm0-83.2c-9.682829-.032924-18.859838,4.320273-24.96,11.84-37.44,44.48-92.8,118.08-134.4,172.8-81.28,106.56-88.32,242.24,0,334.08c41.914988,44.001215,100.030163,68.904002,160.8,68.904002s118.885012-24.902787,160.8-68.904002c88.32-91.84,78.72-232.64,0-334.08-43.84-56.32-100.16-128-137.28-173.12-6.100162-7.519727-15.277171-11.872924-24.96-11.84v.32Z" fill="#3e3e3e"/></svg>
