<svg id="e4usxCDU8XR1" xmlns="http://www.w3.org/2000/svg" xmlns:xlink="http://www.w3.org/1999/xlink" viewBox="-17.5 0 65 65" shape-rendering="geometricPrecision" text-rendering="geometricPrecision"><g><g transform="translate(0 2)"><path d="M22.1,42.7v-35.9c0-4.7-3-6.9-6.9-6.9-4,0-7,2.2-7,6.9v35.8c-2.4,2-4.1,5.2-4.1,8.6c0,6.1,5.1,10.7,11.2,10.7s10.9-4.6,10.9-10.7c-.1-3.2-1.8-6.5-4.1-8.5v0Z" fill="none" fill-rule="evenodd" stroke="#3e3e3e" stroke-width="2"/><path d="M15.1,7v34.8" fill="none" fill-rule="evenodd" stroke="#3e3e3e" stroke-width="2"/><path d="M21.4,47.9c.5.9.7,2,.7,3.1c0,3.8-3.1,7-7,7" fill="none" fill-rule="evenodd" stroke="#3e3e3e" stroke-width="2"/><path d="M25,9.9h5" fill="none" fill-rule="evenodd" stroke="#3e3e3e" stroke-width="2"/><path d="M25,16.9h3" fill="none" fill-rule="evenodd" stroke="#3e3e3e" stroke-width="2"/><path d="M25,23.9h5" fill="none" fill-rule="evenodd" stroke="#3e3e3e" stroke-width="2"/><path d="M25,29.9h3" fill="none" fill-rule="evenodd" stroke="#3e3e3e" stroke-width="2"/><path d="M25,36.9h5" fill="none" fill-rule="evenodd" stroke="#3e3e3e" stroke-width="2"/><path d="M0,9.9h5" fill="none" fill-rule="evenodd" stroke="#3e3e3e" stroke-width="2"/><path d="M2,16.9h3" fill="none" fill-rule="evenodd" stroke="#3e3e3e" stroke-width="2"/><path d="M0,23.9h5" fill="none" fill-rule="evenodd" stroke="#3e3e3e" stroke-width="2"/><path d="M2,29.9h3" fill="none" fill-rule="evenodd" stroke="#3e3e3e" stroke-width="2"/><path d="M0,36.9h5" fill="none" fill-rule="evenodd" stroke="#3e3e3e" stroke-width="2"/></g></g></svg>
