<svg id="er2GCncNq1T1" xmlns="http://www.w3.org/2000/svg" xmlns:xlink="http://www.w3.org/1999/xlink" viewBox="0 0 58 58" shape-rendering="geometricPrecision" text-rendering="geometricPrecision"><g><rect width="10" height="4" rx="0" ry="0" transform="translate(24 0)" fill="#c7cac7"/><path d="M41.536,58h-25.072C15.103,58,14,56.897,14,55.536v-49.072C14,5.103,15.103,4,16.464,4h25.072C42.897,4,44,5.300156,44,6.464v49.072C44,56.897,42.897,58,41.536,58Z" fill="#e7eced"/><path d="M14,16.677143L14,55.536C14,56.897,15.103,58,16.464,58h25.072C42.897,58,44,56.897,44,55.536c0,0,0-24.33565,0-38.863692-9,0-30,.004835-30,.004835Z" transform="translate(.083242 0)" fill="#45a55c"/></g></svg>
